# xmcd
#
# Track frame offsets:
#	150
#	11970
#	22864
#	41511
#	56438
#	73330
#	88892
#	100145
#	113171
#	126859
#
# Disc length: 1876 seconds
# Revision: 0
# Processed by: cddbd v1.5.2PL0 Copyright (c) Steve Scherf et al.
# Submitted via: dBpowerAMP V12.0
#
DISCID=8407520a
DTITLE=Britni Hendrickson - Don't Worry About Me
DYEAR=2003
DGENRE=Country
TTITLE0=What the Cards Held for Me
TTITLE1=That What I Like About You
TTITLE2=Don't Worry About Me
TTITLE3=Dreaming out Loud
TTITLE4=Just a Closer Walk with Thee
TTITLE5=Part Time Lover
TTITLE6=Give This Heart a  Break
TTITLE7=Sweet and Wholesome
TTITLE8=Gonna  Find Me a Bluebird
TTITLE9=Plug My Heart into the Jukebox
EXTD=
EXTT0=
EXTT1=
EXTT2=
EXTT3=
EXTT4=
EXTT5=
EXTT6=
EXTT7=
EXTT8=
EXTT9=
PLAYORDER=
